<?xml version="1.0" encoding="utf-8"?>
<!-- Generator: Adobe Illustrator 17.0.0, SVG Export Plug-In . SVG Version: 6.00 Build 0)  -->
<!DOCTYPE svg PUBLIC "-//W3C//DTD SVG 1.1//EN" "http://www.w3.org/Graphics/SVG/1.1/DTD/svg11.dtd">
<svg version="1.1" id="Layer_1" xmlns="http://www.w3.org/2000/svg" xmlns:xlink="http://www.w3.org/1999/xlink" x="0px" y="0px"
	 width="148px" height="58px" viewBox="0 0 148 58" enable-background="new 0 0 148 58" xml:space="preserve">
<g>
	<path fill="#FFFFFF" d="M48,24.733c0,0,2.133-3,10-4.6s16.667,9.2,16.667,9.2"/>
	<path fill="#BCBEC0" d="M47.809,24.583c0,0,0.039-0.109,0.178-0.324c0.132-0.226,0.351-0.505,0.65-0.846
		c0.304-0.333,0.705-0.708,1.197-1.095c0.504-0.355,1.076-0.792,1.755-1.124c0.34-0.171,0.695-0.35,1.062-0.534
		c0.37-0.176,0.773-0.295,1.177-0.45c0.411-0.135,0.829-0.29,1.266-0.406c0.442-0.088,0.894-0.177,1.353-0.269
		c0.485-0.085,0.978-0.171,1.477-0.259c0.467-0.027,0.94-0.055,1.417-0.083c0.526,0.031,1.078,0.089,1.614,0.136
		c0.518,0.089,1.007,0.233,1.51,0.349c0.974,0.309,1.914,0.692,2.783,1.158c0.87,0.462,1.697,0.962,2.446,1.507
		c0.769,0.52,1.456,1.092,2.107,1.629c0.644,0.546,1.231,1.085,1.759,1.596c2.106,2.049,3.294,3.611,3.294,3.611l-0.376,0.307
		c0,0-0.313-0.358-0.898-0.965c-0.588-0.602-1.45-1.443-2.538-2.386c-0.546-0.47-1.149-0.962-1.806-1.456
		c-0.663-0.484-1.36-1-2.125-1.453c-0.749-0.481-1.562-0.908-2.399-1.292c-0.838-0.389-1.719-0.685-2.606-0.912
		c-0.447-0.073-0.899-0.179-1.333-0.229c-0.427-0.006-0.835-0.039-1.26-0.03c-0.472,0.075-0.94,0.149-1.402,0.222L58.1,20.987
		c-0.073,0.011,0.087-0.014,0.067-0.01l-0.02,0.007l-0.041,0.013l-0.082,0.026l-0.163,0.052l-0.324,0.102
		c-0.215,0.068-0.427,0.135-0.639,0.202c-0.423,0.13-0.837,0.257-1.247,0.367c-0.398,0.136-0.787,0.27-1.166,0.4
		c-0.383,0.117-0.755,0.232-1.116,0.342c-0.35,0.131-0.689,0.257-1.014,0.378c-0.678,0.199-1.225,0.5-1.764,0.698
		c-0.508,0.237-0.955,0.454-1.314,0.645c-0.351,0.204-0.638,0.358-0.805,0.476c-0.186,0.105-0.284,0.197-0.284,0.197L47.809,24.583z
		"/>
</g>
<g>
	<path fill="#FFFFFF" d="M101.333,33.933c0,0-2.133,3-10,4.6s-16.667-9.2-16.667-9.2"/>
	<path fill="#BCBEC0" d="M101.524,34.083c0,0-0.033,0.113-0.163,0.336c-0.125,0.234-0.336,0.525-0.631,0.875
		c-0.139,0.192-0.329,0.344-0.526,0.535c-0.202,0.18-0.409,0.409-0.668,0.578c-0.505,0.358-1.086,0.785-1.772,1.107
		c-0.345,0.162-0.704,0.33-1.076,0.505c-0.377,0.158-0.782,0.269-1.191,0.411c-0.411,0.133-0.832,0.27-1.264,0.41
		c-0.438,0.105-0.885,0.212-1.339,0.32c-0.227,0.054-0.456,0.109-0.687,0.164l-0.347,0.083l-0.175,0.041l-0.087,0.021l-0.044,0.01
		l-0.022,0.005l-0.11,0.017c-0.465,0.045-0.936,0.091-1.411,0.137c-0.534-0.012-1.105-0.065-1.656-0.109
		c-0.531-0.085-1.027-0.224-1.54-0.337c-0.994-0.299-1.951-0.682-2.829-1.156c-0.88-0.466-1.717-0.971-2.473-1.521
		c-0.771-0.533-1.457-1.116-2.107-1.663c-0.646-0.552-1.22-1.113-1.737-1.639c-2.075-2.102-3.189-3.726-3.189-3.726l0.376-0.307
		c0,0,0.33,0.345,0.942,0.925c0.61,0.58,1.488,1.402,2.599,2.311c0.556,0.455,1.173,0.924,1.828,1.412
		c0.664,0.474,1.362,0.979,2.125,1.42c0.742,0.477,1.546,0.9,2.372,1.279c0.829,0.381,1.693,0.676,2.559,0.914
		c0.436,0.076,0.881,0.187,1.303,0.24c0.408,0.019,0.815,0.038,1.218,0.057c0.474-0.056,0.943-0.112,1.408-0.168l0.011-0.001
		c0.082-0.013-0.1,0.016-0.077,0.012l0.021-0.005l0.041-0.01l0.082-0.021l0.164-0.041l0.327-0.082
		c0.217-0.055,0.433-0.109,0.647-0.162c0.428-0.107,0.849-0.212,1.26-0.315c0.399-0.135,0.789-0.267,1.169-0.396
		c0.378-0.131,0.746-0.258,1.102-0.381c0.341-0.15,0.677-0.28,0.999-0.408c0.671-0.21,1.209-0.521,1.747-0.716
		c0.508-0.242,0.952-0.453,1.317-0.627c0.355-0.195,0.65-0.337,0.824-0.448c0.194-0.096,0.299-0.184,0.299-0.184L101.524,34.083z"/>
</g>
<g>
	<circle fill="#BCBEC0" cx="60.533" cy="31.342" r="2.168"/>
	<g>
		<path fill="#BCBEC0" d="M61.832,31.575c-0.046,0.862-0.547,1.733-1.492,1.363c-0.733-0.287-1.067-1.104-1.106-1.829
			c-0.047-0.88,0.614-1.707,1.492-1.363C61.458,30.034,61.793,30.85,61.832,31.575c0.024,0.442,1.77,0.115,1.739-0.466
			c-0.192-3.568-5.902-2.758-6.076,0.466c-0.088,1.629,1.724,2.556,3.134,2.326c1.529-0.249,2.852-1.144,2.941-2.792
			C63.592,30.716,61.865,30.974,61.832,31.575z"/>
	</g>
</g>
<g>
	<circle fill="#BCBEC0" cx="89.761" cy="26.922" r="2.168"/>
	<g>
		<path fill="#BCBEC0" d="M91.06,27.155c-0.049,0.898-0.581,1.853-1.576,1.338c-0.676-0.35-0.983-1.082-1.022-1.804
			c-0.05-0.923,0.652-1.817,1.576-1.338C90.715,25.702,91.021,26.434,91.06,27.155c0.019,0.343,1.766,0.041,1.739-0.466
			c-0.19-3.521-5.906-2.683-6.076,0.466c-0.089,1.65,1.717,2.492,3.118,2.264c1.501-0.244,2.869-1.09,2.958-2.73
			C92.815,26.399,91.089,26.62,91.06,27.155z"/>
	</g>
</g>
<g>
	<path fill="#BCBEC0" d="M3.75,30.433c0,0,2.438-0.1,6.094-0.25c3.656-0.171,8.531-0.293,13.406-0.45
		c2.438-0.073,4.875-0.213,7.16-0.242c2.285,0.004,4.418,0.107,6.246,0.242c3.656,0.256,6.094,0.7,6.094,0.7v0.2
		c0,0-2.438,0.444-6.094,0.7c-1.828,0.135-3.961,0.238-6.246,0.242c-2.285-0.029-4.723-0.169-7.16-0.242
		c-4.875-0.157-9.75-0.279-13.406-0.45c-3.656-0.15-6.094-0.25-6.094-0.25S3.75,30.433,3.75,30.433z"/>
</g>
<g>
	<path fill="#BCBEC0" d="M146,30.633c0,0-2.438,0.1-6.094,0.25c-3.656,0.171-8.531,0.293-13.406,0.45
		c-2.438,0.073-4.875,0.213-7.16,0.242c-2.285-0.004-4.418-0.107-6.246-0.242c-3.656-0.256-6.094-0.7-6.094-0.7v-0.2
		c0,0,2.438-0.444,6.094-0.7c1.828-0.135,3.961-0.238,6.246-0.242c2.285,0.029,4.723,0.169,7.16,0.242
		c4.875,0.157,9.75,0.279,13.406,0.45c3.656,0.15,6.094,0.25,6.094,0.25L146,30.633L146,30.633z"/>
</g>
</svg>
